<?xml version="1.0" encoding="UTF-8"?>
<svg version="1.1" xmlns="http://www.w3.org/2000/svg" width="1200" height="1200">
<path d="M0 0 C1.27308014 0.00054382 2.54616028 0.00108765 3.8578186 0.00164795 C24.79204183 0.04262891 45.27676261 0.95321003 65.9375 4.375 C66.6117804 4.48626221 67.28606079 4.59752441 67.98077393 4.7121582 C77.69094665 6.33382457 87.32302961 8.25469855 96.9375 10.375 C97.98760254 10.60413086 99.03770508 10.83326172 100.11962891 11.06933594 C126.69751269 16.98125262 152.12934942 26.25560914 176.9375 37.375 C178.13221924 37.90407959 178.13221924 37.90407959 179.35107422 38.44384766 C203.99996085 49.40799519 227.2831189 63.31669491 248.9375 79.375 C249.59379395 79.86000977 250.25008789 80.34501953 250.92626953 80.84472656 C262.34569517 89.29859043 273.48271922 97.87213648 283.8828125 107.56640625 C286.10242193 109.63118493 288.37615452 111.61864059 290.67578125 113.59375 C295.6700273 117.94623425 300.32800855 122.61938424 305 127.3125 C305.85916016 128.16779297 306.71832031 129.02308594 307.60351562 129.90429688 C312.59045975 134.89886047 317.36319909 140.00123587 321.9375 145.375 C322.82634492 146.39624955 323.71563585 147.41711117 324.60546875 148.4375 C331.77984621 156.8020455 338.4437595 165.47407904 344.9375 174.375 C345.68217529 175.38820313 345.68217529 175.38820313 346.44189453 176.421875 C391.44209597 237.84839549 419.27173672 313.45230427 424.9375 389.375 C425.02290039 390.45144775 425.10830078 391.52789551 425.19628906 392.63696289 C426.06724829 404.7734208 426.18064834 416.89813726 426.1875 429.0625 C426.18851212 430.68714172 426.18851212 430.68714172 426.18954468 432.34460449 C426.17256672 449.55803686 425.5289586 466.33252568 422.9375 483.375 C422.76057617 484.56351563 422.58365234 485.75203125 422.40136719 486.9765625 C414.08141644 541.58072973 396.16905248 593.84035929 367.9375 641.375 C367.46070801 642.18646484 366.98391602 642.99792969 366.49267578 643.83398438 C357.09093957 659.80081115 346.49000114 674.89059868 334.9375 689.375 C334.42493652 690.01904785 333.91237305 690.6630957 333.38427734 691.32666016 C324.72266052 702.15687783 315.59994571 712.42995778 305.9375 722.375 C305.23125488 723.10315918 304.52500977 723.83131836 303.79736328 724.58154297 C296.3125527 732.26572697 288.86111996 739.7849663 280.40625 746.40625 C277.82920157 748.46136457 275.4204924 750.63834246 273 752.875 C268.14248221 757.28401459 263.02874014 761.22009379 257.72314453 765.07373047 C255.75410794 766.50864502 253.79724208 767.95941059 251.83984375 769.41015625 C235.63338042 781.35071829 218.73191698 791.96606556 200.9375 801.375 C200.01710938 801.86581055 199.09671875 802.35662109 198.1484375 802.86230469 C155.58339457 825.39426178 108.75501671 840.64711587 60.97509766 846.96923828 C58.96216146 847.23812592 56.95126425 847.5227826 54.94287109 847.82373047 C18.58236889 853.22058405 -20.7112188 852.72231103 -57.0625 847.375 C-58.25230469 847.20339355 -59.44210937 847.03178711 -60.66796875 846.85498047 C-122.04732866 837.73124193 -183.10275314 816.24357339 -234.26464844 780.61962891 C-236.17791706 779.29509829 -238.10669352 777.99570677 -240.0390625 776.69921875 C-257.2030851 765.13466068 -273.09165415 752.03581598 -288.25 737.9609375 C-291.60674788 734.87459431 -295.04627668 731.89238195 -298.515625 728.93359375 C-300.0625 727.375 -300.0625 727.375 -300.0625 725.375 C-300.88234375 725.05789063 -300.88234375 725.05789063 -301.71875 724.734375 C-304.90381255 722.88703872 -307.13056784 720.33789176 -309.5625 717.625 C-310.34645142 716.76152954 -310.34645142 716.76152954 -311.14624023 715.88061523 C-329.55930561 695.48871721 -346.69752466 673.91673515 -360.87841797 650.34179688 C-362.04526853 648.403622 -363.22725975 646.47528625 -364.41015625 644.546875 C-376.82737968 624.08959472 -387.46096077 602.70091939 -396.0625 580.375 C-396.44744629 579.3835498 -396.83239258 578.39209961 -397.22900391 577.37060547 C-413.92021302 533.96786773 -424.01343959 486.86426489 -424.30078125 440.265625 C-424.31052979 438.95197968 -424.32027832 437.63833435 -424.33032227 436.28488159 C-424.3575297 432.06493022 -424.36874303 427.84502922 -424.375 423.625 C-424.37629787 422.90734215 -424.37759575 422.1896843 -424.37893295 421.45027924 C-424.40858575 399.82624825 -423.9116622 378.72434987 -420.0625 357.375 C-419.87526367 356.25351562 -419.68802734 355.13203125 -419.49511719 353.9765625 C-412.57620642 312.58259551 -399.69076955 271.63603282 -380.13867188 234.4375 C-378.92100147 232.10381588 -377.73404251 229.75559202 -376.546875 227.40625 C-370.37086035 215.27798934 -363.5802401 203.718039 -356.0625 192.375 C-355.60375488 191.68067871 -355.14500977 190.98635742 -354.67236328 190.27099609 C-342.58134416 172.0756886 -329.04521913 155.01803832 -314.3359375 138.875 C-312.65999304 137.03203702 -311.00062991 135.1791931 -309.3515625 133.3125 C-308.44272622 132.29165074 -307.53387241 131.27081709 -306.625 130.25 C-305.80128906 129.31929687 -304.97757812 128.38859375 -304.12890625 127.4296875 C-302.0625 125.375 -302.0625 125.375 -300.0625 125.375 C-299.6603125 124.4778125 -299.6603125 124.4778125 -299.25 123.5625 C-298.06332594 121.37652146 -296.96650887 119.96167406 -295.0625 118.375 C-294.4025 118.375 -293.7425 118.375 -293.0625 118.375 C-293.0625 117.715 -293.0625 117.055 -293.0625 116.375 C-291.69921875 115 -291.69921875 115 -289.75 113.375 C-286.39947623 110.53497635 -283.15326071 107.61684848 -279.9375 104.625 C-218.51903053 48.7670504 -137.41872132 14.14198282 -49.0625 2.375 C-48.36043427 2.29133179 -47.65836853 2.20766357 -46.93502808 2.12145996 C-31.29346331 0.28362184 -15.73818075 -0.02537817 0 0 Z M-131.0625 31.375 C-132.03171387 31.69404297 -133.00092773 32.01308594 -133.99951172 32.34179688 C-157.16466637 40.0458701 -179.79097692 50.42597013 -201.0625 62.375 C-201.77229004 62.77251465 -202.48208008 63.1700293 -203.21337891 63.57958984 C-218.44150019 72.1741575 -233.1258164 81.81246085 -247.0625 92.375 C-247.7328125 92.88289063 -248.403125 93.39078125 -249.09375 93.9140625 C-257.51074543 100.31448611 -265.80163513 106.74398407 -273.5078125 113.99609375 C-275.51917039 115.86905546 -277.55767651 117.65974691 -279.64453125 119.4453125 C-284.68451806 123.83789117 -289.39342147 128.55571172 -294.1081543 133.2902832 C-295.6224258 134.80991668 -297.1419743 136.32412517 -298.66210938 137.83789062 C-304.00487481 143.17662144 -309.19302228 148.59581271 -314.0625 154.375 C-314.89394531 155.34824219 -315.72539062 156.32148438 -316.58203125 157.32421875 C-338.4826189 183.47807214 -356.82476251 211.86226893 -372.0625 242.375 C-372.50190918 243.24592285 -372.94131836 244.1168457 -373.39404297 245.01416016 C-392.65580173 283.36993044 -404.74045395 324.99544269 -411.0625 367.375 C-411.28897217 368.80320068 -411.28897217 368.80320068 -411.52001953 370.26025391 C-420.85529322 431.03520181 -412.83070552 496.21747144 -394.0625 554.375 C-393.81983398 555.1395752 -393.57716797 555.90415039 -393.32714844 556.69189453 C-376.57830696 608.93548109 -347.92222646 659.2305371 -310.65234375 699.5390625 C-308.71123177 701.66462404 -306.82912542 703.81161099 -304.95703125 705.99609375 C-300.61654856 710.97003963 -295.97830631 715.64525764 -291.31201172 720.31079102 C-289.82356763 721.80141615 -288.34332723 723.29987017 -286.86328125 724.79882812 C-281.32110389 730.37271281 -275.6345404 735.54946202 -269.46459961 740.44042969 C-267.18269587 742.27819829 -265.02225161 744.19532312 -262.875 746.1875 C-256.31981973 752.066167 -249.18308767 757.20980687 -242.0625 762.375 C-241.44020508 762.82746094 -240.81791016 763.27992188 -240.17675781 763.74609375 C-206.24774228 788.2171012 -167.93896001 807.72641884 -128.0625 820.375 C-126.97501465 820.72272461 -125.8875293 821.07044922 -124.76708984 821.42871094 C-95.5433295 830.65137295 -65.61907843 836.77076061 -35.0625 839.375 C-34.03326416 839.4678125 -33.00402832 839.560625 -31.94360352 839.65625 C-21.54967457 840.5076506 -11.17245969 840.61821589 -0.75 840.625 C0.65937836 840.62601212 0.65937836 840.62601212 2.097229 840.62704468 C47.5736524 840.57561924 91.7904905 832.7252474 134.9375 818.375 C136.00661621 818.01986328 137.07573242 817.66472656 138.17724609 817.29882812 C191.23145294 799.36095858 239.26326214 769.04421361 280.57421875 731.51953125 C282.19387814 730.04979074 283.82194815 728.58928095 285.45703125 727.13671875 C293.10996086 720.3301961 300.40881384 713.29959211 307.07421875 705.515625 C309.22636777 703.04313514 311.45730719 700.65228643 313.6875 698.25 C319.47026914 691.89943631 324.72054115 685.19281791 329.9375 678.375 C330.66888184 677.42898926 330.66888184 677.42898926 331.41503906 676.46386719 C347.46924541 655.68229844 361.70252729 633.12576331 372.97509766 609.38964844 C374.00064052 607.24282457 375.0518767 605.10974975 376.10546875 602.9765625 C414.68413654 524.16621324 424.61318859 434.32793568 393.9375 291.375 C382.70965914 259.10447265 367.88508641 227.83140876 348.9375 199.375 C348.4748877 198.67826172 348.01227539 197.98152344 347.53564453 197.26367188 C335.20547145 178.79248608 321.66777003 161.5121896 306.57421875 145.23046875 C304.06301571 142.51092886 301.58955593 139.7617888 299.125 137 C295.82918236 133.3379804 292.55234129 129.72534071 288.9375 126.375 C288.2775 126.375 287.6175 126.375 286.9375 126.375 C286.9375 125.715 286.9375 125.055 286.9375 124.375 C285.52430081 122.90629272 285.52430081 122.90629272 283.625 121.375 C280.27447623 118.53497635 277.02826071 115.61684848 273.8125 112.625 C268.04273909 107.37110492 261.99976667 102.54507411 255.80419922 97.8046875 C254.55803341 96.85026074 253.31486536 95.89190733 252.07470703 94.9296875 C234.84774193 81.56617192 216.54460892 70.25787452 197.45117188 59.76318359 C195.35695985 58.60664809 193.27718535 57.43034337 191.203125 56.23828125 C158.15528589 37.73614597 120.91575626 25.85620899 83.9375 18.375 C82.21539307 18.01801025 82.21539307 18.01801025 80.45849609 17.65380859 C10.40268122 3.33300666 -63.37461471 8.71297673 -131.0625 31.375 Z " fill="#000631" transform="translate(599.0625,174.625)"/>
<path d="M0 0 C1.34888732 0.00015905 2.69778075 0.00584927 4.04663086 0.01586914 C5.10991859 0.01799156 5.10991859 0.01799156 6.19468689 0.02015686 C8.46699173 0.02577096 10.73919936 0.03832576 13.01147461 0.05102539 C14.54858257 0.05603858 16.08569206 0.0606018 17.62280273 0.06469727 C21.39823103 0.07574497 25.17358632 0.09301898 28.94897461 0.11352539 C28.28449601 9.0315276 26.540016 17.63333705 24.69897461 26.36352539 C24.37981505 27.89570395 24.06088836 29.42793104 23.7421875 30.96020508 C21.86402446 39.95293622 19.89050463 48.91920945 17.80249023 57.86572266 C15.62503285 67.30047302 13.77359274 76.80218753 11.91552734 86.30395508 C11.67390869 87.53404297 11.43229004 88.76413086 11.18334961 90.03149414 C10.96904297 91.13259521 10.75473633 92.23369629 10.53393555 93.36816406 C9.94897461 96.11352539 9.94897461 96.11352539 8.94897461 99.11352539 C9.60897461 99.11352539 10.26897461 99.11352539 10.94897461 99.11352539 C11.15522461 98.32977539 11.36147461 97.54602539 11.57397461 96.73852539 C12.72912975 93.69311638 13.92094237 91.37681752 15.61303711 88.63305664 C19.10797987 82.88693795 22.40899926 77.04125731 25.69897461 71.17602539 C26.83852937 69.14547648 27.97910766 67.11550154 29.12084961 65.08618164 C29.61681641 64.20196533 30.1127832 63.31774902 30.6237793 62.40673828 C31.66632579 60.60264116 32.79316392 58.84724142 33.94897461 57.11352539 C36.74633789 56.77294922 36.74633789 56.77294922 40.26928711 56.82055664 C41.52612305 56.83022461 42.78295898 56.83989258 44.07788086 56.84985352 C46.05594727 56.88755859 46.05594727 56.88755859 48.07397461 56.92602539 C49.41380364 56.94107056 50.75364865 56.95475926 52.09350586 56.96704102 C55.37906303 57.00249667 58.66382043 57.0519169 61.94897461 57.11352539 C62.27897461 57.77352539 62.60897461 58.43352539 62.94897461 59.11352539 C62.08569336 60.93383789 62.08569336 60.93383789 60.63647461 63.23852539 C60.07959961 64.13442383 59.52272461 65.03032227 58.94897461 65.95336914 C58.28897461 66.9962207 57.62897461 68.03907227 56.94897461 69.11352539 C55.76593233 70.9995125 54.58518641 72.88692568 53.40454102 74.77441406 C52.55103653 76.13847658 51.69652527 77.50190962 50.84106445 78.86474609 C47.5390488 84.13500996 44.31942031 89.45027317 41.15087891 94.80175781 C38.86103032 98.65377716 36.44372484 102.38918339 33.94897461 106.11352539 C29.93242864 112.46375895 29.84401763 117.12690758 30.41772461 124.49267578 C30.9356822 131.57179054 31.23299341 138.6406634 31.44897461 145.73461914 C31.50967888 147.61271271 31.50967888 147.61271271 31.5716095 149.52874756 C31.70043827 153.53608456 31.8252513 157.54352858 31.94897461 161.55102539 C32.0978956 166.3495384 32.24732857 171.14803535 32.39740944 175.94651222 C32.43952978 177.29523033 32.48149071 178.64395343 32.52329063 179.9926815 C32.77123762 187.97809196 33.05145338 195.96027227 33.40600586 203.94165039 C33.46810419 205.41502857 33.52996843 206.88841665 33.59155273 208.36181641 C33.70157256 210.91234779 33.82321572 213.46241535 33.95874023 216.01171875 C34.00321289 217.09074463 34.04768555 218.16977051 34.09350586 219.28149414 C34.13838135 220.18150146 34.18325684 221.08150879 34.22949219 222.00878906 C34.13692139 222.70335205 34.04435059 223.39791504 33.94897461 224.11352539 C30.4862969 226.4219772 29.15339371 226.35989041 25.07397461 226.34399414 C23.92413086 226.34206055 22.77428711 226.34012695 21.58959961 226.33813477 C20.38819336 226.32588867 19.18678711 226.31364258 17.94897461 226.30102539 C16.74756836 226.30038086 15.54616211 226.29973633 14.30834961 226.29907227 C5.37034271 226.25398142 5.37034271 226.25398142 1.94897461 225.11352539 C1.01281466 210.74375738 0.65067139 196.38455403 0.38647461 181.98852539 C0.34315025 179.75805088 0.29953227 177.52758206 0.25561523 175.29711914 C0.15002642 169.90264853 0.04802503 164.50811982 -0.05102539 159.11352539 C-4.1035968 165.14030784 -4.1035968 165.14030784 -6.52758789 171.92602539 C-6.7215918 172.76520508 -6.9155957 173.60438477 -7.11547852 174.46899414 C-7.30045898 175.34168945 -7.48543945 176.21438477 -7.67602539 177.11352539 C-7.88420898 178.0377832 -8.09239258 178.96204102 -8.30688477 179.91430664 C-9.77956067 186.54822988 -11.02425419 193.21329077 -12.23852539 199.89868164 C-13.22531013 205.14226045 -14.36877985 210.34844338 -15.55102539 215.55102539 C-15.75276367 216.48237305 -15.95450195 217.4137207 -16.16235352 218.37329102 C-16.46302734 219.66589844 -16.46302734 219.66589844 -16.76977539 220.98461914 C-16.94444336 221.75733154 -17.11911133 222.53004395 -17.29907227 223.32617188 C-17.5472168 223.91599854 -17.79536133 224.5058252 -18.05102539 225.11352539 C-21.31049817 226.20001632 -23.71613514 226.24281048 -27.14477539 226.24633789 C-28.33973633 226.24762695 -29.53469727 226.24891602 -30.76586914 226.25024414 C-32.0149707 226.24637695 -33.26407227 226.24250977 -34.55102539 226.23852539 C-35.80012695 226.24239258 -37.04922852 226.24625977 -38.33618164 226.25024414 C-40.12862305 226.24831055 -40.12862305 226.24831055 -41.95727539 226.24633789 C-43.60179687 226.244646 -43.60179687 226.244646 -45.27954102 226.24291992 C-48.05102539 226.11352539 -48.05102539 226.11352539 -51.05102539 225.11352539 C-49.64838625 216.13317427 -47.91668874 207.23898972 -46.07421875 198.34106445 C-45.61434716 196.11749882 -45.15961968 193.89292325 -44.70532227 191.66821289 C-43.204892 184.36667366 -41.58871656 177.12517965 -39.73681641 169.90307617 C-38.56894438 165.1525935 -37.6632106 160.35366312 -36.73852539 155.55102539 C-34.71014863 145.19467728 -32.47056972 134.89724478 -30.14819336 124.60327148 C-28.7741828 118.47795924 -27.47389164 112.35462716 -26.36352539 106.17602539 C-25.39123191 100.76870903 -24.16947661 95.49535547 -22.78930664 90.17993164 C-21.82556805 86.17710205 -21.1133516 82.14172268 -20.38696289 78.09008789 C-18.90654415 70.0300303 -17.05218269 62.05314857 -15.24975586 54.06030273 C-13.84209665 47.78261805 -12.4990059 41.50869481 -11.36352539 35.17602539 C-10.39283417 29.78329638 -9.19571274 24.51440968 -7.80883789 19.21508789 C-6.58450191 14.20414577 -5.65456788 9.13877503 -4.69946289 4.07055664 C-3.83816131 0.14281388 -3.83816131 0.14281388 0 0 Z M7.94897461 99.11352539 C8.94897461 103.11352539 8.94897461 103.11352539 8.94897461 103.11352539 Z " fill="#000632" transform="translate(809.051025390625,637.886474609375)"/>
<path d="M0 0 C2.57448737 2.25880331 5.06032444 4.60586908 7.54296875 6.96484375 C8.2771402 7.65963837 9.01131165 8.35443298 9.76773071 9.07028198 C18.36387303 17.24288047 26.79933805 25.57756989 35.1953125 33.95507812 C37.88616393 36.63612325 40.58753647 39.30627927 43.2890625 41.9765625 C64.70489008 63.25945417 81.18909554 84.54226827 82 116 C81.61739468 137.88115001 73.05525845 158.16010267 58 174 C41.00954469 190.14882284 19.15316234 198.66360319 -4.29296875 198.25 C-22.88727635 196.99601087 -40.84428363 190.78362572 -54.6574707 177.96313477 C-55.17414716 177.48377503 -55.69082361 177.0044153 -56.22315693 176.51052952 C-61.73828505 171.36408199 -67.0908857 166.05450047 -72.41796875 160.71484375 C-73.45202884 159.68145988 -74.48623711 158.64822426 -75.52058411 157.61512756 C-77.65898057 155.47818653 -79.7956053 153.33949498 -81.9309082 151.19946289 C-84.66896633 148.45563566 -87.41158942 145.71642158 -90.15549755 142.97844601 C-92.27876652 140.85877986 -94.39966166 138.73675147 -96.5198307 136.61398506 C-97.53142232 135.60172713 -98.5437552 134.59020941 -99.55684471 133.57945061 C-100.96112839 132.17769658 -102.36188067 130.77240744 -103.76245117 129.36694336 C-104.55898605 128.56961288 -105.35552094 127.77228241 -106.17619324 126.95079041 C-109.16175433 123.75735782 -109.2779208 121.38526611 -109.22265625 117.03515625 C-108.90143435 114.09907538 -107.81916075 112.29079502 -106 110 C-102.25478374 107.50318916 -99.33266585 107.15383741 -95 108 C-86.10868901 112.36247275 -78.26938285 122.15939299 -71.89453125 129.6015625 C-67.2906181 134.90410922 -62.34921751 139.87331803 -57.39501953 144.84521484 C-55.75993267 146.49000837 -54.13586994 148.14519804 -52.51171875 149.80078125 C-38.09602871 164.36283041 -22.67157972 174.65890245 -1.5 175.375 C16.27411734 174.79910813 31.43336402 168.08894681 43.75 155.375 C54.68817225 142.59419658 59.30325837 126.71336274 58.20703125 110.08203125 C55.96071997 87.49176878 41.60726905 73.46783809 26.3515625 58.11328125 C25.81088512 57.56852835 25.27020775 57.02377544 24.71314621 56.46251488 C21.85691968 53.58562925 18.99757166 50.7118877 16.13574219 47.84057617 C13.2103813 44.90412088 10.29690826 41.95615402 7.38585854 39.00552082 C5.11554021 36.70888065 2.83621089 34.4213399 0.55448532 32.13603783 C-0.52280934 31.05392695 -1.59677663 29.96849128 -2.66706467 28.87944984 C-10.95735264 20.45284846 -19.60947046 13.19857053 -30.875 9.125 C-31.92429687 8.73570312 -32.97359375 8.34640625 -34.0546875 7.9453125 C-48.59323952 3.27909289 -65.70249685 4.93102646 -79.27734375 11.61328125 C-82.28547081 13.29024702 -85.14841136 15.07048194 -88 17 C-88.65484375 17.43828125 -89.3096875 17.8765625 -89.984375 18.328125 C-98.62689614 24.90912734 -104.2821781 35.87866919 -108.7109375 45.5390625 C-110.64699004 49.2351628 -112.02625962 50.67541987 -116 52 C-120.01863693 52.37209601 -122.28309915 52.41420938 -125.8125 50.375 C-128.49593791 47.46155313 -129.41580317 45.94332861 -130 42 C-127.96778498 26.26484939 -114.90495088 10.50954969 -103.0625 0.625 C-93.03919216 -6.86096104 -82.93387618 -11.59791503 -71 -15 C-70.17242188 -15.2475 -69.34484375 -15.495 -68.4921875 -15.75 C-45.22894155 -21.58607564 -18.72093974 -14.37410963 0 0 Z " fill="#000731" transform="translate(675,395)"/>
<path d="M0 0 C6.06932106 5.77325662 8.85895253 10.9821386 9.5625 19.4375 C9.54469699 29.92347416 6.75776195 40.86245352 4.1484375 50.9765625 C2.30744255 58.2366796 0.93596275 65.57838643 -0.4375 72.9375 C-1.99660653 81.29130646 -3.65542062 89.57849405 -5.78125 97.81054688 C-6.66166608 101.33483149 -7.31128129 104.85910736 -7.9375 108.4375 C-8.74903734 113.07485623 -9.70971502 117.60201649 -10.875 122.1640625 C-12.44631297 128.3426203 -13.71950417 134.55609873 -14.9375 140.8125 C-15.3735137 142.99873466 -15.8097105 145.18493282 -16.24609375 147.37109375 C-16.95367087 150.94217296 -17.63963175 154.51487527 -18.28515625 158.09765625 C-18.52105469 159.34417969 -18.75695312 160.59070313 -19 161.875 C-19.18691406 162.92558594 -19.37382813 163.97617187 -19.56640625 165.05859375 C-20.4375 167.4375 -20.4375 167.4375 -22.1027832 168.57177734 C-25.06618589 169.67061933 -27.50425963 169.67979887 -30.6640625 169.66796875 C-31.8603125 169.66603516 -33.0565625 169.66410156 -34.2890625 169.66210938 C-35.53429687 169.64986328 -36.77953125 169.63761719 -38.0625 169.625 C-39.31546875 169.62435547 -40.5684375 169.62371094 -41.859375 169.62304688 C-51.1567697 169.57786515 -51.1567697 169.57786515 -53.4375 168.4375 C-52.81907783 159.34856813 -50.96785783 150.57869744 -49.10888672 141.6796875 C-48.56546216 139.07668871 -48.0301497 136.47212279 -47.49609375 133.8671875 C-45.83577127 125.81720459 -44.09112184 117.81503921 -42.04101562 109.85351562 C-41.25719951 106.71571455 -40.67290594 103.56179985 -40.125 100.375 C-38.82016073 93.10117663 -37.24238102 85.8975926 -35.625 78.6875 C-35.24432373 76.98267456 -35.24432373 76.98267456 -34.85595703 75.2434082 C-33.76243685 70.34839323 -32.66718794 65.45381154 -31.56152344 60.56152344 C-30.69626587 56.73102852 -29.84799196 52.89685489 -29 49.0625 C-28.59334106 47.28020996 -28.59334106 47.28020996 -28.1784668 45.46191406 C-27.93523682 44.35299805 -27.69200684 43.24408203 -27.44140625 42.1015625 C-27.11378296 40.63904053 -27.11378296 40.63904053 -26.77954102 39.14697266 C-26.41977739 36.29711064 -26.71291739 34.20065885 -27.4375 31.4375 C-29.13862992 30.63280151 -29.13862992 30.63280151 -31.4375 30.4375 C-35.05507733 31.91406218 -37.97345815 33.38933924 -40.4375 36.4375 C-44.28762012 46.89648772 -45.89432818 58.36505329 -48.02734375 69.265625 C-49.57758359 77.18636436 -51.18693249 85.09443552 -52.8125 93 C-52.95948334 93.71537933 -53.10646667 94.43075867 -53.25790405 95.16781616 C-55.72245035 107.14463463 -58.30225821 119.09406138 -60.93945312 131.03393555 C-63.01796469 140.45884918 -65.01559286 149.89790062 -66.92822266 159.35791016 C-67.11433105 160.26847168 -67.30043945 161.1790332 -67.4921875 162.1171875 C-67.65187012 162.90851074 -67.81155273 163.69983398 -67.97607422 164.51513672 C-68.4375 166.4375 -68.4375 166.4375 -69.4375 168.4375 C-74.73312514 170.20270838 -80.39555596 169.62214038 -85.9375 169.625 C-87.18660156 169.63724609 -88.43570313 169.64949219 -89.72265625 169.66210938 C-90.91761719 169.66404297 -92.11257813 169.66597656 -93.34375 169.66796875 C-94.44009766 169.67207764 -95.53644531 169.67618652 -96.66601562 169.68041992 C-99.4375 169.4375 -99.4375 169.4375 -102.4375 167.4375 C-100.01982044 154.96511781 -97.37223916 142.55858597 -94.58178711 130.16430664 C-93.23480142 124.1449777 -91.96314416 118.13384978 -90.875 112.0625 C-89.8337962 106.26929048 -88.53308017 100.58636505 -87.125 94.875 C-84.56548111 84.47100244 -82.54314251 73.97825734 -80.58081055 63.44897461 C-79.2896856 56.57990722 -77.83510553 49.80803076 -76.08935547 43.0402832 C-75.26204227 39.73691766 -74.64300687 36.41737737 -74.0625 33.0625 C-72.82886222 26.1869104 -71.35645714 19.37472666 -69.8125 12.5625 C-69.59416504 11.5926416 -69.37583008 10.6227832 -69.15087891 9.62353516 C-68.84029541 8.26687744 -68.84029541 8.26687744 -68.5234375 6.8828125 C-68.3382959 6.07344238 -68.1531543 5.26407227 -67.96240234 4.43017578 C-67.4375 2.4375 -67.4375 2.4375 -66.4375 0.4375 C-55.8775 0.4375 -45.3175 0.4375 -34.4375 0.4375 C-34.7675 3.7375 -35.0975 7.0375 -35.4375 10.4375 C-32.15294402 8.79522201 -29.5121739 7.13644605 -26.5625 5 C-18.13845432 -0.87724117 -10.11670986 -4.59850448 0 0 Z " fill="#000631" transform="translate(757.4375,694.5625)"/>
<path d="M0 0 C4.1255875 3.21122857 7.77215851 6.64545468 11.14916992 10.63574219 C15.32822903 15.45355955 19.82442665 19.91411346 24.36328125 24.390625 C26.15442765 26.16913914 27.94543938 27.94778891 29.73632812 29.7265625 C32.5369279 32.50224722 35.33911141 35.27629704 38.14379883 38.04785156 C40.86715308 40.74108599 43.58432307 43.44043775 46.30078125 46.140625 C47.56478508 47.38443939 47.56478508 47.38443939 48.85432434 48.65338135 C50.0214521 49.81544098 50.0214521 49.81544098 51.2121582 51.00097656 C52.23971977 52.01735199 52.23971977 52.01735199 53.28804016 53.05426025 C56.01481968 56.1534003 56.92603215 58.32196133 57.375 62.4375 C56.93394638 66.62750939 55.98913863 68.093893 53 71 C49.73065722 73.28853994 46.9301848 73.47162218 43 73 C38.76141892 70.47324734 35.37512783 67.60318745 31.93530273 64.08300781 C31.46762985 63.60759552 30.99995697 63.13218323 30.51811218 62.6423645 C29.51094477 61.61765688 28.50602598 60.59073509 27.50317192 59.56180573 C25.9046551 57.92346541 24.29839188 56.29309353 22.68971252 54.66473389 C18.11924715 50.03663191 13.55847044 45.39916997 9.01342773 40.74609375 C6.22298847 37.89045428 3.41985547 35.04777742 0.60887337 32.2123642 C-0.44862809 31.14079167 -1.50147454 30.06460082 -2.54910469 28.98337555 C-15.92949095 15.18026309 -31.09949025 6.09858828 -50.875 5.6875 C-67.98601559 5.85541968 -82.22775424 11.69858214 -94.75 23.55859375 C-105.40893896 35.12428273 -110.8993847 50.08966389 -111.03125 65.69921875 C-110.19094625 86.13960738 -101.39973643 101.09752566 -87 115 C-85.57967354 116.3046978 -84.15897603 117.60900275 -82.73400879 118.90863037 C-77.04642741 124.09685501 -71.52546461 129.41119172 -66.1171875 134.890625 C-65.44380341 135.57189453 -64.77041931 136.25316406 -64.07662964 136.95507812 C-61.30836134 139.7595273 -58.54323102 142.56691941 -55.78759766 145.38378906 C-39.72553228 161.78134466 -24.19189898 175.1236631 0 175.375 C16.38262615 175.18559419 31.19597198 169.49339571 43 158 C49.22714859 150.95348976 53.55578976 143.43569528 57.39453125 134.93359375 C59.01671484 131.96945781 60.05887795 130.60221125 63 129 C66.49474879 128.36521165 69.89834454 128.70225528 73.3125 129.625 C75.9656134 131.7867961 76.8663562 133.778065 78 137 C78.40598476 148.36757334 70.11896793 159.78223485 63 168 C62.40703125 168.73605469 61.8140625 169.47210938 61.203125 170.23046875 C47.41674764 186.77981844 27.19096398 195.8245018 6 198 C-14.29761019 199.36918791 -36.02548489 194.03878056 -51.75178528 180.6587677 C-52.6803685 179.79660141 -53.60895172 178.93443512 -54.56567383 178.04614258 C-55.08003652 177.56881337 -55.5943992 177.09148417 -56.12434864 176.59969044 C-62.15378773 170.97376363 -68.03050754 165.19188526 -73.88671875 159.38671875 C-74.76354781 158.5178752 -74.76354781 158.5178752 -75.65809059 157.63147926 C-78.74499324 154.57100915 -81.8284085 151.50706996 -84.90942383 148.44067383 C-87.42661299 145.93684537 -89.95088865 143.44050761 -92.48168945 140.95043945 C-95.58031163 137.90162418 -98.66601548 134.84025726 -101.7433567 131.76996803 C-102.90106586 130.61887949 -104.06294892 129.47197006 -105.22943687 128.32977867 C-115.17219705 118.58263801 -123.74676115 108.05666571 -128.4375 94.75 C-128.66630859 94.13382812 -128.89511719 93.51765625 -129.13085938 92.8828125 C-136.58234628 72.01005956 -134.36558042 48.88505595 -125.46875 28.8671875 C-115.32274046 9.06088164 -98.54327062 -6.36611754 -77.2109375 -13.28515625 C-50.08965921 -21.25024745 -22.9130528 -16.73551405 0 0 Z " fill="#000731" transform="translate(577,297)"/>
<path d="M0 0 C1.42022461 -0.03673828 1.42022461 -0.03673828 2.86914062 -0.07421875 C12.39482833 -0.11355401 19.48554667 2.91763785 26.4609375 9.37890625 C33.62363072 17.65975746 34.01161185 28.94089263 33.47460938 39.37158203 C32.86880819 45.70879822 31.60984537 51.94795949 30.375 58.1875 C30.17908768 59.17831573 30.17908768 59.17831573 29.97921753 60.18914795 C28.4565232 67.8062802 26.75581297 75.35928784 24.79272461 82.875 C24.25206895 85.10828516 23.85882438 87.28599443 23.5625 89.5625 C23.1875 92.375 23.1875 92.375 22.1875 93.375 C20.59139018 93.46833705 18.99116572 93.49245372 17.39233398 93.48852539 C16.37135117 93.48844986 15.35036835 93.48837433 14.29844666 93.48829651 C13.1880452 93.48313522 12.07764374 93.47797394 10.93359375 93.47265625 C9.80301041 93.4712413 8.67242706 93.46982635 7.50758362 93.46836853 C3.88002935 93.46275019 0.25253576 93.45019458 -3.375 93.4375 C-5.82747307 93.43248736 -8.2799471 93.42792405 -10.73242188 93.42382812 C-16.75913545 93.4127748 -22.78581339 93.39601884 -28.8125 93.375 C-29.00368408 94.42268555 -29.19486816 95.47037109 -29.3918457 96.54980469 C-30.62674656 103.26060617 -31.87725028 109.94368707 -33.49926758 116.57373047 C-35.66603455 125.4499743 -37.38575218 134.37907776 -34.8125 143.375 C-27.7496014 143.82616035 -27.7496014 143.82616035 -21.8125 140.375 C-18.18124029 134.0975946 -16.57418329 128.00634581 -15.125 120.9375 C-14.70746985 118.95899085 -14.28705828 116.9810868 -13.86328125 115.00390625 C-13.68450439 114.13838135 -13.50572754 113.27285645 -13.3215332 112.38110352 C-12.8125 110.375 -12.8125 110.375 -11.8125 109.375 C-9.66691173 109.28724395 -7.51845579 109.26804781 -5.37109375 109.27734375 C-4.06591797 109.28056641 -2.76074219 109.28378906 -1.41601562 109.28710938 C-0.0273431 109.29546599 1.36132877 109.30393095 2.75 109.3125 C4.14257656 109.31751334 5.53515481 109.32207653 6.92773438 109.32617188 C10.3476987 109.33800566 13.76757844 109.3544912 17.1875 109.375 C20.59417703 120.50223556 13.20642966 137.4514671 8.1875 147.375 C5.04827852 152.35486557 1.66905606 157.48677671 -2.8125 161.375 C-3.4725 161.375 -4.1325 161.375 -4.8125 161.375 C-4.8125 162.035 -4.8125 162.695 -4.8125 163.375 C-14.6017683 171.28972756 -25.7827246 175.04545087 -38.4375 174.1875 C-47.88049643 172.97825298 -55.50806987 170.91229646 -61.8125 163.375 C-70.88861009 148.69969762 -69.04242716 131.89019356 -65.25 115.6875 C-64.41437096 112.20444392 -63.56854291 108.72400566 -62.71972656 105.24414062 C-60.85527327 97.29261862 -59.29862023 89.27391498 -57.68869019 81.26773071 C-56.11557674 73.46127181 -54.46303334 65.6975923 -52.48022461 57.98217773 C-51.89626325 55.70205952 -51.34730014 53.41879911 -50.8203125 51.125 C-46.39782553 32.33921464 -38.64933695 15.49463388 -21.625 4.9375 C-14.43732033 0.75362676 -8.17432343 0.01099438 0 0 Z M-13.8125 33.375 C-19.72799626 42.88334368 -22.8125 56.1903458 -22.8125 67.375 C-16.5425 67.375 -10.2725 67.375 -3.8125 67.375 C1.89879293 50.76574796 1.89879293 50.76574796 2.1875 33.375 C1.02486755 31.02365302 1.02486755 31.02365302 -0.8125 29.375 C-6.55932862 28.63347373 -9.86652119 28.78913273 -13.8125 33.375 Z " fill="#000631" transform="translate(519.8125,692.625)"/>
<path d="M0 0 C10.56 0 21.12 0 32 0 C33.37194091 4.11582274 32.31200116 7.48707465 31.453125 11.62109375 C31.28125671 12.47623062 31.10938843 13.33136749 30.93231201 14.2124176 C30.56589821 16.02800313 30.19577884 17.84284412 29.82226562 19.65698242 C29.25892925 22.39411466 28.70653245 25.13326381 28.15625 27.87304688 C26.47820123 36.17054736 24.71949672 44.41907175 22.59912109 52.61694336 C21.81319792 55.74302164 21.2335541 58.88647104 20.6875 62.0625 C19.13095068 70.78621144 17.147728 79.41041033 15.19873047 88.05322266 C13.54288696 95.4377255 12.02054451 102.81928195 10.73828125 110.27734375 C10.15449438 113.22098867 9.47912187 116.07131763 8.7265625 118.97265625 C6.43022469 128.02077617 4.61007509 137.17464603 2.72094727 146.31445312 C2.06966095 149.46535556 1.41504602 152.61555104 0.75976562 155.765625 C-1.44214906 166.36870151 -3.61793364 176.97614482 -5.70359802 187.6027832 C-6.71248189 192.70740043 -7.88497364 197.74278102 -9.21875 202.7734375 C-9.87473734 205.4826652 -10.43960659 208.17843242 -10.96875 210.9140625 C-11.22495117 212.21718384 -11.22495117 212.21718384 -11.48632812 213.54663086 C-11.82443103 215.28487188 -12.15156142 217.02528905 -12.46679688 218.76782227 C-12.87850826 220.86716594 -13.42839591 222.93844261 -14 225 C-17.25947278 226.08649093 -19.66510975 226.12928509 -23.09375 226.1328125 C-24.28871094 226.13410156 -25.48367188 226.13539063 -26.71484375 226.13671875 C-27.96394531 226.13285156 -29.21304688 226.12898437 -30.5 226.125 C-31.74910156 226.12886719 -32.99820313 226.13273438 -34.28515625 226.13671875 C-36.07759766 226.13478516 -36.07759766 226.13478516 -37.90625 226.1328125 C-39.55077148 226.13112061 -39.55077148 226.13112061 -41.22851562 226.12939453 C-44 226 -44 226 -47 225 C-46.39693305 218.49736503 -45.27386414 212.34390632 -43.75 206 C-41.91983837 198.17013131 -40.22986536 190.32898835 -38.6875 182.4375 C-36.25379118 170.01681489 -33.5714964 157.65386572 -30.85424805 145.29272461 C-29.01623851 136.89902551 -27.30454019 128.50394523 -25.81298828 120.04125977 C-25.18939202 116.73863793 -24.38656061 113.49698833 -23.55810547 110.23999023 C-22.06744439 104.36812942 -20.80935485 98.47148367 -19.625 92.53125 C-19.41439941 91.48908325 -19.20379883 90.4469165 -18.98681641 89.37316895 C-18.32193214 86.08263258 -17.66051089 82.79141682 -17 79.5 C-16.12818015 75.15560154 -15.25267569 70.81196879 -14.375 66.46875 C-14.18115723 65.49651489 -13.98731445 64.52427979 -13.78759766 63.52258301 C-12.56963048 57.49746131 -11.17438732 51.53915108 -9.64485168 45.58534241 C-8.84784661 42.38998591 -8.24543108 39.18260935 -7.6875 35.9375 C-5.5373633 23.87568203 -2.68864185 11.94951934 0 0 Z " fill="#000631" transform="translate(592,638)"/>
<path d="M0 0 C1.52388234 3.04776467 0.4553531 5.84556388 -0.1875 9.0625 C-0.32260986 9.76117187 -0.45771973 10.45984375 -0.59692383 11.1796875 C-2.17505236 19.17057106 -4.07091594 27.08781765 -6 35 C-7.77503906 35.00386719 -7.77503906 35.00386719 -9.5859375 35.0078125 C-20.83223886 35.21125242 -28.34776356 36.36476276 -36.59765625 44.58984375 C-39.78955211 48.55289479 -40.60727307 52.98112654 -41.625 57.875 C-41.8317334 58.80175537 -42.0384668 59.72851074 -42.25146484 60.68334961 C-43.76623847 67.57337515 -45.07572167 74.49826754 -46.3203125 81.44140625 C-46.93686882 84.66946834 -47.6721077 87.82072285 -48.5 91 C-49.78644264 95.96105059 -50.75741292 100.93548037 -51.6706543 105.97729492 C-53.83044991 117.70747457 -56.45809539 129.34809084 -59 141 C-59.2784375 142.2782666 -59.556875 143.5565332 -59.84375 144.87353516 C-60.66274601 148.62489708 -61.48651437 152.37517142 -62.3125 156.125 C-62.56684814 157.28684814 -62.82119629 158.44869629 -63.08325195 159.64575195 C-63.43842896 161.24809692 -63.43842896 161.24809692 -63.80078125 162.8828125 C-64.00872314 163.82527832 -64.21666504 164.76774414 -64.4309082 165.73876953 C-65 168 -65 168 -66 170 C-71.29910159 171.7663672 -76.95404239 171.22710647 -82.5 171.25 C-84.37365234 171.2809375 -84.37365234 171.2809375 -86.28515625 171.3125 C-88.07759766 171.32023437 -88.07759766 171.32023437 -89.90625 171.328125 C-91.00259766 171.3374707 -92.09894531 171.34681641 -93.22851562 171.35644531 C-96 171 -96 171 -97.74597168 169.81964111 C-99 168 -99 168 -98.72021484 165.48522949 C-98.28249756 164.02204285 -98.28249756 164.02204285 -97.8359375 162.52929688 C-96.69488111 158.47379736 -95.6234536 154.46045869 -94.7890625 150.33007812 C-94.59876465 149.38869995 -94.4084668 148.44732178 -94.21240234 147.47741699 C-94.01855957 146.50518188 -93.8247168 145.53294678 -93.625 144.53125 C-93.41439941 143.48908325 -93.20379883 142.4469165 -92.98681641 141.37316895 C-92.32193214 138.08263258 -91.66051089 134.79141682 -91 131.5 C-90.12818015 127.15560154 -89.25267569 122.81196879 -88.375 118.46875 C-88.18115723 117.49651489 -87.98731445 116.52427979 -87.78759766 115.52258301 C-86.5806211 109.55183046 -85.17820811 103.65616901 -83.67657471 97.75302124 C-82.81739916 94.25698674 -82.15044831 90.76789762 -81.5234375 87.22265625 C-80.19993424 79.92141234 -78.6760905 72.67496177 -77.06750488 65.43066406 C-76.60994162 63.3696729 -76.15567229 61.30797734 -75.70214844 59.24609375 C-74.80375821 55.16354682 -73.90205848 51.08173801 -73 47 C-72.08000835 42.83405577 -71.16271497 38.66754457 -70.25 34.5 C-70.04793945 33.58089844 -69.84587891 32.66179688 -69.63769531 31.71484375 C-68.16186065 24.9314429 -66.89924477 18.12722304 -65.7734375 11.27734375 C-65 8 -65 8 -62 2 C-51.77 2 -41.54 2 -31 2 C-29.64984141 6.05047576 -30.37915002 8.7920168 -31 13 C-30.50371094 12.54109375 -30.00742187 12.0821875 -29.49609375 11.609375 C-20.33102 3.33124387 -12.48015566 -0.44395811 0 0 Z " fill="#000631" transform="translate(470,693)"/>
<path d="M0 0 C10.23 0 20.46 0 31 0 C31.93909568 4.69547841 31.94069365 6.39702287 30.890625 10.83203125 C30.5025769 12.51317017 30.5025769 12.51317017 30.10668945 14.22827148 C29.82398193 15.41106689 29.54127441 16.5938623 29.25 17.8125 C28.68413349 20.2573356 28.1203211 22.70264757 27.55859375 25.1484375 C27.28644043 26.32889648 27.01428711 27.50935547 26.73388672 28.72558594 C25.57768601 33.88425655 24.63388605 39.06821379 23.73828125 44.27734375 C23.10473475 47.47189305 22.36195996 50.59157293 21.55859375 53.74609375 C20.09670209 59.50824551 18.88194968 65.29031391 17.75 71.125 C17.32115038 73.29834258 16.89141054 75.47150963 16.4609375 77.64453125 C16.22987305 78.81193848 15.99880859 79.9793457 15.76074219 81.18212891 C14.47192078 87.65022556 13.15714732 94.11293804 11.83312988 100.57391357 C11.53188356 102.04591085 11.23164274 103.51811433 10.93249512 104.99053955 C9.33466274 112.85303575 7.62691393 120.66259509 5.63427734 128.43676758 C4.81291867 131.75603036 4.20362122 135.06721927 3.625 138.4375 C2.4107212 145.1403525 1.00966431 151.79508979 -0.5 158.4375 C-0.70157715 159.36812256 -0.9031543 160.29874512 -1.11083984 161.25756836 C-1.3114502 162.12003174 -1.51206055 162.98249512 -1.71875 163.87109375 C-1.89341797 164.64380615 -2.06808594 165.41651855 -2.24804688 166.21264648 C-2.49619141 166.80247314 -2.74433594 167.3922998 -3 168 C-6.25947278 169.08649093 -8.66510975 169.12928509 -12.09375 169.1328125 C-13.28871094 169.13410156 -14.48367188 169.13539063 -15.71484375 169.13671875 C-16.96394531 169.13285156 -18.21304688 169.12898437 -19.5 169.125 C-20.74910156 169.12886719 -21.99820313 169.13273438 -23.28515625 169.13671875 C-25.07759766 169.13478516 -25.07759766 169.13478516 -26.90625 169.1328125 C-28.55077148 169.13112061 -28.55077148 169.13112061 -30.22851562 169.12939453 C-33 169 -33 169 -36 168 C-34.59736086 159.01964888 -32.86566335 150.12546433 -31.02319336 141.22753906 C-30.56332177 139.00397343 -30.10859429 136.77939786 -29.65429688 134.5546875 C-28.15186363 127.24329276 -26.53488236 119.99088574 -24.68139648 112.75878906 C-23.54604666 108.16206639 -22.65157782 103.52222386 -21.75 98.875 C-21.32115038 96.70165742 -20.89141054 94.52849037 -20.4609375 92.35546875 C-20.22987305 91.18806152 -19.99880859 90.0206543 -19.76074219 88.81787109 C-18.47192078 82.34977444 -17.15714732 75.88706196 -15.83312988 69.42608643 C-15.53188356 67.95408915 -15.23164274 66.48188567 -14.93249512 65.00946045 C-13.33466274 57.14696425 -11.62691393 49.33740491 -9.63427734 41.56323242 C-8.81291867 38.24396964 -8.20362122 34.93278073 -7.625 31.5625 C-6.42775267 24.86293837 -4.95007462 18.24539427 -3.375 11.625 C-3.15666504 10.70275635 -2.93833008 9.7805127 -2.71337891 8.83032227 C-1.13018241 2.26036482 -1.13018241 2.26036482 0 0 Z " fill="#000631" transform="translate(636,695)"/>
<path d="M0 0 C10.56 0 21.12 0 32 0 C30.87402472 10.13377751 30.87402472 10.13377751 29.84375 14.62109375 C29.51697266 16.05291992 29.51697266 16.05291992 29.18359375 17.51367188 C28.95800781 18.47853516 28.73242188 19.44339844 28.5 20.4375 C28.27441406 21.42943359 28.04882812 22.42136719 27.81640625 23.44335938 C26.13972622 30.72054757 26.13972622 30.72054757 25 33 C20.60343827 33.02465504 16.2069128 33.04283842 11.81030273 33.05493164 C10.31355082 33.05997121 8.81680384 33.06680287 7.32006836 33.07543945 C5.17300193 33.08752159 3.02600038 33.09323191 0.87890625 33.09765625 C-1.06133423 33.10551147 -1.06133423 33.10551147 -3.04077148 33.11352539 C-6 33 -6 33 -7 32 C-6.42848202 27.00874295 -5.52688538 22.06618053 -4.625 17.125 C-4.5115625 16.46886719 -4.398125 15.81273437 -4.28125 15.13671875 C-3.30082743 9.7861147 -1.76319042 5.28957126 0 0 Z " fill="#000632" transform="translate(648,638)"/>
</svg>
